<svg id="Layer_1" data-name="Layer 1" xmlns="http://www.w3.org/2000/svg" xmlns:xlink="http://www.w3.org/1999/xlink" viewBox="0 0 2328 1080"><defs><style>.cls-1{fill:url(#linear-gradient);}.cls-2{fill:url(#linear-gradient-2);}.cls-3{fill:#6b00bf;}.cls-4{fill:#ed8eff;}.cls-5{fill:#ed00ff;}.cls-6{fill:#510092;}.cls-7{fill:#c63fff;}.cls-8{fill:#fff;}</style><linearGradient id="linear-gradient" x1="568.36" y1="696.41" x2="837.54" y2="427.24" gradientUnits="userSpaceOnUse"><stop offset="0" stop-color="#e900e4"/><stop offset="0.35" stop-color="#9f26d6"/><stop offset="0.55" stop-color="#7839ce"/><stop offset="1" stop-color="#3c7f9c"/></linearGradient><linearGradient id="linear-gradient-2" x1="244.35" y1="692.02" x2="667.71" y2="268.66" xlink:href="#linear-gradient"/></defs><path class="cls-1" d="M893.07,547.63a160.76,160.76,0,0,0-4.51-29c-9.86-40.19-30.27-74-61.51-101.22a186.06,186.06,0,0,0-66.43-37.2,201.34,201.34,0,0,0-40.4-8.25,173.88,173.88,0,0,0-40,.65,194.8,194.8,0,0,0-52.42,14.26,187,187,0,0,0-43.19,25.51c-23.9,19-41.77,42.76-54.73,70.27a182.26,182.26,0,0,0-16.32,60.4c-.42,4.26,1.11,4.54,4.19,4.54l51.52,0a22.71,22.71,0,0,0,3-.2,3.12,3.12,0,0,0,2.62-2.2,54,54,0,0,0,1.35-5.82c.32-1.56.46-3.16.79-4.72,6-29.28,20.75-53.4,43.76-72.34a129.66,129.66,0,0,1,110.76-26.64c56.49,12.6,98.11,62.11,100.59,119.38a129.43,129.43,0,0,1-4.63,42.08c-9.51,32.7-28.77,58.06-57.87,75.72-20.08,12.19-42,18.06-65.55,18.22a136.47,136.47,0,0,1-25.6-2.35,123.5,123.5,0,0,1-48.36-19.91A134.64,134.64,0,0,1,603,643.62c-1.14-1.38-2.23-2.82-3.38-4.19s-2.2-1.61-3.62-.69c-.34.22-.66.45-1,.68L551.26,670a12.11,12.11,0,0,0-1.83,1.52,1.33,1.33,0,0,0-.36,1.62,31.47,31.47,0,0,0,1.92,3,176.88,176.88,0,0,0,24.91,27.47,192.09,192.09,0,0,0,113,48.39,181.49,181.49,0,0,0,34.09-.54,192.76,192.76,0,0,0,28.23-5.24A190.78,190.78,0,0,0,878,637.07c10.34-24,15.45-49,15.86-77C894,557.17,893.35,552.41,893.07,547.63Z"/><path class="cls-2" d="M572.71,577.86c0-.42-.64-1.07-1.12-1.23a7.35,7.35,0,0,0-2.36-.22H515.9c-.79,0-1.59.09-2.38.16a2.28,2.28,0,0,0-1.7,1.49q-.65,3.54-1.27,7.08a135.53,135.53,0,0,1-6.95,24.74,126,126,0,0,1-32.27,47q-33.3,31-78.64,34a128.85,128.85,0,0,1-40.42-3.46Q302.08,674.67,274.13,631a126.92,126.92,0,0,1-19.28-56.74,132,132,0,0,1,1.33-35.18,124.1,124.1,0,0,1,17-45.1c14.53-23.48,34.75-40.41,60-51.44a116.72,116.72,0,0,1,30.42-8.7,130.93,130.93,0,0,1,18.73-1.37h.07c1.39,0,2.78,0,4.17.08A200,200,0,0,0,430.84,428a185.1,185.1,0,0,0,59.22-24q7.53-4.67,14.7-10.08c3.84-2.9,7.44-6,11.12-9.12a95.7,95.7,0,0,0,10.89-10.23q3.33-3.84,6.72-7.63a157.64,157.64,0,0,0,15.44-20.58c24.51-38.22,34.73-79.95,29.78-125.08a189.12,189.12,0,0,0-15.08-56.62H492.78a120.58,120.58,0,0,1,7.58,11.23q26.46,44.52,15.39,95.15a127.28,127.28,0,0,1-26.5,53.75,132.61,132.61,0,0,1-25.82,23.93,123.88,123.88,0,0,1-43.92,19.86,131.77,131.77,0,0,1-21.89,3.27h0c-2.1-.16-4.21-.29-6.31-.38-4.89-.22-9.75-.23-14.61,0a174.28,174.28,0,0,0-33,4.45,201.37,201.37,0,0,0-60.56,24.56q-35.53,21.93-60,59.61A187.79,187.79,0,0,0,195,536.37c-.66,4.76-1,9.52-1.4,14.3a98,98,0,0,0-.48,14.93c.25,3.39.47,6.77.65,10.16a159.48,159.48,0,0,0,3.62,25.46c9.7,44.37,32,81.1,67.4,109.5,34.54,27.72,74.22,41.51,119.13,42.13,5.37-.27,11.37-.33,17.32-.92a194.54,194.54,0,0,0,31.2-5.69c39-10.48,71.69-30.83,97.45-62,23.48-28.38,37.91-60.82,42.54-97.47A72,72,0,0,0,572.71,577.86Z"/><path class="cls-3" d="M459,538.82H408.38V488.17A13.14,13.14,0,0,0,395.24,475H374.71a13.13,13.13,0,0,0-13.13,13.14v50.65H310.92A13.14,13.14,0,0,0,297.78,552v20.53a13.14,13.14,0,0,0,13.14,13.14h50.66v50.66a13.14,13.14,0,0,0,13.13,13.14h20.53a13.15,13.15,0,0,0,13.14-13.14V585.63H459a13.15,13.15,0,0,0,13.14-13.14V552A13.15,13.15,0,0,0,459,538.82Z"/><path class="cls-4" d="M396.19,483.26H373.75a3,3,0,0,0-3,3V513a1.3,1.3,0,0,0,.13.3l12.81,22.2a1.47,1.47,0,0,0,2.56,0l12.82-22.2a1.2,1.2,0,0,0,.13-.31V486.27A3,3,0,0,0,396.19,483.26Z"/><path class="cls-4" d="M396.19,641.22H373.75a3,3,0,0,1-3-3V611.44a1.2,1.2,0,0,1,.13-.31l12.81-22.2a1.48,1.48,0,0,1,2.56,0l12.82,22.2a1.13,1.13,0,0,1,.13.32v26.76A3,3,0,0,1,396.19,641.22Z"/><path class="cls-4" d="M463.77,551v22.45a3,3,0,0,1-3,3H434a1.58,1.58,0,0,1-.31-.13l-22.2-12.81a1.48,1.48,0,0,1,0-2.56l22.2-12.82A1.44,1.44,0,0,1,434,548h26.76A3,3,0,0,1,463.77,551Z"/><path class="cls-4" d="M305.63,551v22.45a3,3,0,0,0,3,3h26.77a1.3,1.3,0,0,0,.3-.13l22.2-12.81a1.47,1.47,0,0,0,0-2.56l-22.2-12.82a1.13,1.13,0,0,0-.32-.13H308.64A3,3,0,0,0,305.63,551Z"/><circle class="cls-5" cx="704.98" cy="501.14" r="26.11"/><circle class="cls-3" cx="704.98" cy="623.94" r="26.11"/><circle class="cls-6" cx="762.26" cy="561.08" r="26.11"/><circle class="cls-7" cx="645.56" cy="561.08" r="26.11"/><path class="cls-8" d="M1045.09,586.29h-15.24V498.91l17.27-.89v27.31a57,57,0,0,1,18.8-3.81c21.71,0,35.17,13.08,35.17,32.64s-13.71,32.63-35.55,32.63a55.07,55.07,0,0,1-19.94-4.06Zm38.61-32.13c0-4.58-.76-16.26-19.31-16.26a52.25,52.25,0,0,0-17.27,3.56v25.78a49.38,49.38,0,0,0,17.27,3.17C1082.94,570.41,1083.7,558.73,1083.7,554.16Z"/><path class="cls-8" d="M1107.44,554.16c0-19.56,15.11-32.64,37.72-32.64s37.72,13.08,37.72,32.64-15.12,32.63-37.72,32.63S1107.44,573.71,1107.44,554.16Zm17.27,0c0,4.57,1.91,16.25,20.45,16.25s20.45-11.68,20.45-16.25-1.91-16.26-20.45-16.26S1124.71,549.58,1124.71,554.16Z"/><path class="cls-8" d="M1245.23,522.54l15.11.76v60.07c0,20.32-13.84,29.2-35.68,29.2a108.57,108.57,0,0,1-28.83-3.8l4.06-15.5a114.48,114.48,0,0,0,24.77,2.8c17.65,0,18.54-7.37,18.54-12.7v-.13a54.77,54.77,0,0,1-18.54,3.55c-21.72,0-35.44-13.08-35.44-32.63s13.34-32.64,35.18-32.64c6.86,0,14.48,2.16,20.19,4.44Zm-2,44.7V541.46a53,53,0,0,0-17.4-3.56c-18.42,0-19.31,11.68-19.31,16.26s.89,16.25,19.31,16.25A50.17,50.17,0,0,0,1243.2,567.24Zm-3.69-66.93c0,13.84-8.38,16.51-14.85,16.51s-15-2.67-15-16.51h8.89c0,5.84,2.16,7,6.1,7s6.09-1.15,6.09-7Z"/><path class="cls-8" d="M1325.23,582.73a55.11,55.11,0,0,1-19.94,4.06c-21.71,0-35.43-13.08-35.43-32.63s13.34-32.64,35.18-32.64c6.86,0,14.48,2.16,20.19,4.44l.64-3.42,15.11.76v63h-15.11Zm-1.39-15.49V541.46a52.25,52.25,0,0,0-17.28-3.56c-18.54,0-19.43,11.68-19.43,16.26s.89,16.25,19.43,16.25A50,50,0,0,0,1323.84,567.24Z"/><path class="cls-8" d="M1408.16,522.54l-1.4,16.63-30,30.86h33.78l-1.4,16.26H1350.5L1352,569.9l30.23-31.11H1351l1.39-16.25Z"/><path class="cls-8" d="M1428.47,518.47a10.86,10.86,0,1,1,10.92-10.92A10.81,10.81,0,0,1,1428.47,518.47Zm8.76,67.82h-17.14v-63l17.14-.76Z"/><path class="cls-8" d="M1503.4,566.1l7.11,14.35a56.94,56.94,0,0,1-21.46,6.09l-.13,4.32c8.76,1.4,17.65,5.59,17.65,16.89,0,13.46-14.1,17.65-24.13,17.65a48.16,48.16,0,0,1-13.59-1.65l1.91-13.21s3.43,1.15,10.54,1.15c6.22,0,9.52-1.15,9.52-4.58s-3.42-5.46-15.36-3.93l-.51.25v-.25l1.27-17c-17.91-2.79-29.46-14.86-29.46-32,0-19.56,15.24-32.64,37.84-32.64a62,62,0,0,1,24.77,5.59l-6.74,15.11c-4.69-2.16-11.81-4.32-18-4.32-18.54,0-20.57,11.68-20.57,16.26s2,16.25,20.57,16.25C1493,570.41,1498.82,568,1503.4,566.1Z"/><path class="cls-8" d="M1528.41,518.47a10.86,10.86,0,1,1,10.92-10.92A10.81,10.81,0,0,1,1528.41,518.47Zm8.76,67.82H1520v-63l17.14-.76Z"/><path class="cls-8" d="M1632.54,522.54l15.11.76v60.07c0,20.32-13.84,29.2-35.68,29.2a108.57,108.57,0,0,1-28.83-3.8l4.06-15.5a114.48,114.48,0,0,0,24.77,2.8c17.65,0,18.54-7.37,18.54-12.7v-.13a54.77,54.77,0,0,1-18.54,3.55c-21.72,0-35.43-13.08-35.43-32.63s13.33-32.64,35.17-32.64c6.86,0,14.48,2.16,20.2,4.44Zm-2,44.7V541.46a53,53,0,0,0-17.4-3.56c-18.41,0-19.3,11.68-19.3,16.26s.89,16.25,19.3,16.25A50.12,50.12,0,0,0,1630.51,567.24Z"/><path class="cls-8" d="M1712.54,582.73a55.06,55.06,0,0,1-19.93,4.06c-21.72,0-35.44-13.08-35.44-32.63s13.34-32.64,35.18-32.64c6.86,0,14.48,2.16,20.19,4.44l.64-3.42,15.11.76v63h-15.11Zm-1.39-15.49V541.46a52.25,52.25,0,0,0-17.27-3.56c-18.55,0-19.44,11.68-19.44,16.26s.89,16.25,19.44,16.25A50,50,0,0,0,1711.15,567.24Z"/><path class="cls-8" d="M1840,550.73c0-3.81,0-12.83-13.84-12.83a55.68,55.68,0,0,0-18.67,3.94,32.82,32.82,0,0,1,1.14,8.89v35.56h-17.14l-.13-35.56c0-3.81.13-12.83-13.84-12.83a53.66,53.66,0,0,0-17.52,3.56v44.83h-17.28v-63l15.24-.76.64,3.42c5.84-2.28,13.46-4.44,20.44-4.44,8.64,0,16,2.67,21.21,7.62,5.21-2.79,17.15-7.62,27.31-7.62,17.27,0,29.71,10.41,29.71,29.21v35.56h-17.14Z"/><path class="cls-8" d="M1933.51,561.9l-47.63-.25c2.29,4.45,7.37,8.76,18.67,8.76a62.54,62.54,0,0,0,20.58-3.55L1930,582.1c-6.48,2.92-15.62,4.69-25.65,4.69-21.85,0-37.47-13.08-37.47-32.63s14.48-32.64,36.33-32.64c16.25,0,30.86,10.54,30.86,30.35C1934,556.82,1933.51,561.9,1933.51,561.9Zm-48.26-14.22,31.37-.25c0-6.23-5.34-9.53-13.21-9.53C1891.72,537.9,1887,543,1885.25,547.68Z"/><path class="cls-8" d="M1943.54,523.3l17.14-.76v63.62c0,20.32-14.73,26-27.43,26a102,102,0,0,1-16.89-1.65l2.29-16a80.78,80.78,0,0,0,13.84,1.27c10,0,11-4.19,11-9.65Zm8.38-4.83a10.86,10.86,0,1,1,10.92-10.92A10.82,10.82,0,0,1,1951.92,518.47Z"/><path class="cls-8" d="M2025.57,582.73a55.06,55.06,0,0,1-19.93,4.06c-21.72,0-35.44-13.08-35.44-32.63s13.34-32.64,35.18-32.64c6.86,0,14.48,2.16,20.19,4.44l.64-3.42,15.11.76v63h-15.11Zm-1.39-15.49V541.46a52.25,52.25,0,0,0-17.27-3.56c-18.54,0-19.43,11.68-19.43,16.26s.89,16.25,19.43,16.25A50,50,0,0,0,2024.18,567.24Z"/><path class="cls-8" d="M2153.07,550.73c0-3.81,0-12.83-13.84-12.83a55.68,55.68,0,0,0-18.67,3.94,32.81,32.81,0,0,1,1.15,8.89v35.56h-17.15l-.12-35.56c0-3.81.12-12.83-13.85-12.83a53.66,53.66,0,0,0-17.52,3.56v44.83h-17.28v-63l15.25-.76.63,3.42c5.84-2.28,13.46-4.44,20.45-4.44,8.63,0,16,2.67,21.2,7.62,5.21-2.79,17.15-7.62,27.31-7.62,17.27,0,29.72,10.41,29.72,29.21v35.56H2153.2Z"/></svg>