<svg id="Layer_1" data-name="Layer 1" xmlns="http://www.w3.org/2000/svg" xmlns:xlink="http://www.w3.org/1999/xlink" viewBox="0 0 1080 1080"><defs><style>.cls-1{fill:url(#linear-gradient);}.cls-2{fill:url(#linear-gradient-2);}.cls-3{fill:#6b00bf;}.cls-4{fill:#ed8eff;}.cls-5{fill:#ed00ff;}.cls-6{fill:#510092;}.cls-7{fill:#c63fff;}.cls-8{fill:#3c4b9c;}</style><linearGradient id="linear-gradient" x1="568.36" y1="696.41" x2="837.54" y2="427.24" gradientUnits="userSpaceOnUse"><stop offset="0" stop-color="#e900e4"/><stop offset="0.35" stop-color="#9f26d6"/><stop offset="0.55" stop-color="#7839ce"/><stop offset="1" stop-color="#3c7f9c"/></linearGradient><linearGradient id="linear-gradient-2" x1="244.35" y1="692.02" x2="667.71" y2="268.66" xlink:href="#linear-gradient"/></defs><path class="cls-1" d="M893.07,547.63a160.76,160.76,0,0,0-4.51-29c-9.86-40.19-30.27-74-61.51-101.22a186.06,186.06,0,0,0-66.43-37.2,201.34,201.34,0,0,0-40.4-8.25,173.88,173.88,0,0,0-40,.65,194.8,194.8,0,0,0-52.42,14.26,187,187,0,0,0-43.19,25.51c-23.9,19-41.77,42.76-54.73,70.27a182.26,182.26,0,0,0-16.32,60.4c-.42,4.26,1.11,4.54,4.19,4.54l51.52,0a22.71,22.71,0,0,0,3-.2,3.12,3.12,0,0,0,2.62-2.2,54,54,0,0,0,1.35-5.82c.32-1.56.46-3.16.79-4.72,6-29.28,20.75-53.4,43.76-72.34a129.66,129.66,0,0,1,110.76-26.64c56.49,12.6,98.11,62.11,100.59,119.38a129.43,129.43,0,0,1-4.63,42.08c-9.51,32.7-28.77,58.06-57.87,75.72-20.08,12.19-42,18.06-65.55,18.22a136.47,136.47,0,0,1-25.6-2.35,123.5,123.5,0,0,1-48.36-19.91A134.64,134.64,0,0,1,603,643.62c-1.14-1.38-2.23-2.82-3.38-4.19s-2.2-1.61-3.62-.69c-.34.22-.66.45-1,.68L551.26,670a12.11,12.11,0,0,0-1.83,1.52,1.33,1.33,0,0,0-.36,1.62,31.47,31.47,0,0,0,1.92,3,176.88,176.88,0,0,0,24.91,27.47,192.09,192.09,0,0,0,113,48.39,181.49,181.49,0,0,0,34.09-.54,192.76,192.76,0,0,0,28.23-5.24A190.78,190.78,0,0,0,878,637.07c10.34-24,15.45-49,15.86-77C894,557.17,893.35,552.41,893.07,547.63Z"/><path class="cls-2" d="M572.71,577.86c0-.42-.64-1.07-1.12-1.23a7.35,7.35,0,0,0-2.36-.22H515.9c-.79,0-1.59.09-2.38.16a2.28,2.28,0,0,0-1.7,1.49q-.65,3.54-1.27,7.08a135.53,135.53,0,0,1-6.95,24.74,126,126,0,0,1-32.27,47q-33.3,31-78.64,34a128.85,128.85,0,0,1-40.42-3.46Q302.08,674.67,274.13,631a126.92,126.92,0,0,1-19.28-56.74,132,132,0,0,1,1.33-35.18,124.1,124.1,0,0,1,17-45.1c14.53-23.48,34.75-40.41,60-51.44a116.72,116.72,0,0,1,30.42-8.7,130.93,130.93,0,0,1,18.73-1.37h.07c1.39,0,2.78,0,4.17.08A200,200,0,0,0,430.84,428a185.1,185.1,0,0,0,59.22-24q7.53-4.67,14.7-10.08c3.84-2.9,7.44-6,11.12-9.12a95.7,95.7,0,0,0,10.89-10.23q3.33-3.84,6.72-7.63a157.64,157.64,0,0,0,15.44-20.58c24.51-38.22,34.73-79.95,29.78-125.08a189.12,189.12,0,0,0-15.08-56.62H492.78a120.58,120.58,0,0,1,7.58,11.23q26.46,44.52,15.39,95.15a127.28,127.28,0,0,1-26.5,53.75,132.61,132.61,0,0,1-25.82,23.93,123.88,123.88,0,0,1-43.92,19.86,131.77,131.77,0,0,1-21.89,3.27h0c-2.1-.16-4.21-.29-6.31-.38-4.89-.22-9.75-.23-14.61,0a174.28,174.28,0,0,0-33,4.45,201.37,201.37,0,0,0-60.56,24.56q-35.53,21.93-60,59.61A187.79,187.79,0,0,0,195,536.37c-.66,4.76-1,9.52-1.4,14.3a98,98,0,0,0-.48,14.93c.25,3.39.47,6.77.65,10.16a159.48,159.48,0,0,0,3.62,25.46c9.7,44.37,32,81.1,67.4,109.5,34.54,27.72,74.22,41.51,119.13,42.13,5.37-.27,11.37-.33,17.32-.92a194.54,194.54,0,0,0,31.2-5.69c39-10.48,71.69-30.83,97.45-62,23.48-28.38,37.91-60.82,42.54-97.47A72,72,0,0,0,572.71,577.86Z"/><path class="cls-3" d="M459,538.82H408.38V488.17A13.14,13.14,0,0,0,395.24,475H374.71a13.13,13.13,0,0,0-13.13,13.14v50.65H310.92A13.14,13.14,0,0,0,297.78,552v20.53a13.14,13.14,0,0,0,13.14,13.14h50.66v50.66a13.14,13.14,0,0,0,13.13,13.14h20.53a13.15,13.15,0,0,0,13.14-13.14V585.63H459a13.15,13.15,0,0,0,13.14-13.14V552A13.15,13.15,0,0,0,459,538.82Z"/><path class="cls-4" d="M396.19,483.26H373.75a3,3,0,0,0-3,3V513a1.3,1.3,0,0,0,.13.3l12.81,22.2a1.47,1.47,0,0,0,2.56,0l12.82-22.2a1.2,1.2,0,0,0,.13-.31V486.27A3,3,0,0,0,396.19,483.26Z"/><path class="cls-4" d="M396.19,641.22H373.75a3,3,0,0,1-3-3V611.44a1.2,1.2,0,0,1,.13-.31l12.81-22.2a1.48,1.48,0,0,1,2.56,0l12.82,22.2a1.13,1.13,0,0,1,.13.32v26.76A3,3,0,0,1,396.19,641.22Z"/><path class="cls-4" d="M463.77,551v22.45a3,3,0,0,1-3,3H434a1.58,1.58,0,0,1-.31-.13l-22.2-12.81a1.48,1.48,0,0,1,0-2.56l22.2-12.82A1.44,1.44,0,0,1,434,548h26.76A3,3,0,0,1,463.77,551Z"/><path class="cls-4" d="M305.63,551v22.45a3,3,0,0,0,3,3h26.77a1.3,1.3,0,0,0,.3-.13l22.2-12.81a1.47,1.47,0,0,0,0-2.56l-22.2-12.82a1.13,1.13,0,0,0-.32-.13H308.64A3,3,0,0,0,305.63,551Z"/><circle class="cls-5" cx="704.98" cy="501.14" r="26.11"/><circle class="cls-3" cx="704.98" cy="623.94" r="26.11"/><circle class="cls-6" cx="762.26" cy="561.08" r="26.11"/><circle class="cls-7" cx="645.56" cy="561.08" r="26.11"/><path class="cls-8" d="M170.51,864.68H160.27V806l11.6-.6v18.35a38.18,38.18,0,0,1,12.63-2.56c14.59,0,23.64,8.79,23.64,21.93S198.92,865,184.25,865a37.23,37.23,0,0,1-13.4-2.73Zm25.94-21.59c0-3.07-.51-10.92-13-10.92a35.49,35.49,0,0,0-11.61,2.38v17.33A33.18,33.18,0,0,0,183.48,854C195.94,854,196.45,846.16,196.45,843.09Z"/><path class="cls-8" d="M212.4,843.09c0-13.14,10.16-21.93,25.35-21.93s25.34,8.79,25.34,21.93S252.93,865,237.75,865,212.4,856.23,212.4,843.09Zm11.61,0c0,3.07,1.28,10.92,13.74,10.92s13.73-7.85,13.73-10.92-1.28-10.92-13.73-10.92S224,840,224,843.09Z"/><path class="cls-8" d="M305,821.84l10.16.51v40.36c0,13.66-9.3,19.63-24,19.63a72.9,72.9,0,0,1-19.37-2.56l2.73-10.41a77.38,77.38,0,0,0,16.64,1.88c11.86,0,12.46-5,12.46-8.54v-.08A36.91,36.91,0,0,1,291.16,865c-14.59,0-23.81-8.79-23.81-21.93s9-21.93,23.64-21.93a38.84,38.84,0,0,1,13.57,3Zm-1.36,30V834.55a36,36,0,0,0-11.69-2.38c-12.38,0-13,7.85-13,10.92s.59,10.92,13,10.92A33.67,33.67,0,0,0,303.62,851.88Zm-2.48-45c0,9.3-5.63,11.09-10,11.09s-10.07-1.79-10.07-11.09h6c0,3.92,1.45,4.69,4.1,4.69s4.1-.77,4.1-4.69Z"/><path class="cls-8" d="M358.74,862.29a37.23,37.23,0,0,1-13.4,2.73c-14.59,0-23.81-8.79-23.81-21.93s9-21.93,23.64-21.93a38.84,38.84,0,0,1,13.57,3l.42-2.31,10.16.51v42.33H359.16Zm-.94-10.41V834.55a35.44,35.44,0,0,0-11.61-2.38c-12.45,0-13.05,7.85-13.05,10.92s.6,10.92,13.05,10.92A33.56,33.56,0,0,0,357.8,851.88Z"/><path class="cls-8" d="M414.45,821.84,413.52,833l-20.14,20.73h22.7l-.94,10.93H375.72l1-11,20.31-20.91h-21l.94-10.92Z"/><path class="cls-8" d="M428.1,819.11a7.3,7.3,0,1,1,7.34-7.34A7.26,7.26,0,0,1,428.1,819.11ZM434,864.68H422.47V822.35l11.52-.51Z"/><path class="cls-8" d="M478.45,851.11l4.78,9.64a38.46,38.46,0,0,1-14.42,4.1l-.09,2.9c5.89.94,11.86,3.75,11.86,11.35,0,9-9.47,11.86-16.21,11.86a32.29,32.29,0,0,1-9.13-1.11l1.28-8.88a24.68,24.68,0,0,0,7.08.77c4.18,0,6.4-.77,6.4-3.07S467.7,875,459.68,876l-.35.17V876l.86-11.44c-12-1.88-19.8-10-19.8-21.5,0-13.14,10.24-21.93,25.43-21.93a41.75,41.75,0,0,1,16.64,3.75l-4.52,10.16a31.68,31.68,0,0,0-12.12-2.9c-12.46,0-13.82,7.85-13.82,10.92S453.36,854,465.82,854A30.6,30.6,0,0,0,478.45,851.11Z"/><path class="cls-8" d="M495.25,819.11a7.3,7.3,0,1,1,7.34-7.34A7.26,7.26,0,0,1,495.25,819.11Zm5.89,45.57H489.62V822.35l11.52-.51Z"/><path class="cls-8" d="M565.22,821.84l10.15.51v40.36c0,13.66-9.3,19.63-24,19.63A72.84,72.84,0,0,1,532,879.78l2.73-10.41a77.38,77.38,0,0,0,16.64,1.88c11.86,0,12.45-5,12.45-8.54v-.08A36.8,36.8,0,0,1,551.4,865c-14.59,0-23.81-8.79-23.81-21.93s9-21.93,23.64-21.93a38.84,38.84,0,0,1,13.56,3Zm-1.37,30V834.55a35.91,35.91,0,0,0-11.69-2.38c-12.37,0-13,7.85-13,10.92s.6,10.92,13,10.92A33.58,33.58,0,0,0,563.85,851.88Z"/><path class="cls-8" d="M619,862.29A37.17,37.17,0,0,1,605.58,865c-14.59,0-23.81-8.79-23.81-21.93s9-21.93,23.64-21.93a38.79,38.79,0,0,1,13.56,3l.43-2.31,10.16.51v42.33H619.4ZM618,851.88V834.55a35.49,35.49,0,0,0-11.61-2.38c-12.46,0-13,7.85-13,10.92S594,854,606.43,854A33.56,33.56,0,0,0,618,851.88Z"/><path class="cls-8" d="M704.64,840.78c0-2.56,0-8.61-9.3-8.61a37.47,37.47,0,0,0-12.54,2.64,22.07,22.07,0,0,1,.77,6v23.9H672.05l-.09-23.9c0-2.56.09-8.61-9.3-8.61a36.5,36.5,0,0,0-11.78,2.38v30.13h-11.6V822.35l10.24-.51.43,2.31a39.74,39.74,0,0,1,13.73-3c5.81,0,10.76,1.79,14.25,5.12,3.5-1.88,11.52-5.12,18.35-5.12,11.6,0,20,7,20,19.62v23.9H704.73Z"/><path class="cls-8" d="M767.44,848.29l-32-.17c1.54,3,4.95,5.89,12.55,5.89a41.89,41.89,0,0,0,13.82-2.39l3.24,10.24c-4.35,2-10.49,3.16-17.23,3.16-14.68,0-25.18-8.79-25.18-21.93s9.73-21.93,24.41-21.93c10.92,0,20.73,7.08,20.73,20.39C767.78,844.88,767.44,848.29,767.44,848.29ZM735,838.74l21.07-.17c0-4.19-3.58-6.4-8.87-6.4C739.37,832.17,736.21,835.58,735,838.74Z"/><path class="cls-8" d="M774.18,822.35l11.52-.51v42.75c0,13.65-9.9,17.49-18.43,17.49A68.5,68.5,0,0,1,755.92,881l1.54-10.75a53.92,53.92,0,0,0,9.3.86c6.74,0,7.42-2.82,7.42-6.49Zm5.63-3.24a7.3,7.3,0,1,1,7.34-7.34A7.26,7.26,0,0,1,779.81,819.11Z"/><path class="cls-8" d="M829.3,862.29A37.23,37.23,0,0,1,815.9,865c-14.59,0-23.8-8.79-23.8-21.93s9-21.93,23.63-21.93a38.84,38.84,0,0,1,13.57,3l.43-2.31,10.15.51v42.33H829.73Zm-.94-10.41V834.55a35.38,35.38,0,0,0-11.6-2.38c-12.46,0-13.06,7.85-13.06,10.92S804.3,854,816.76,854A33.45,33.45,0,0,0,828.36,851.88Z"/><path class="cls-8" d="M915,840.78c0-2.56,0-8.61-9.3-8.61a37.53,37.53,0,0,0-12.55,2.64,21.68,21.68,0,0,1,.77,6v23.9H882.37l-.08-23.9c0-2.56.08-8.61-9.3-8.61a36.44,36.44,0,0,0-11.78,2.38v30.13h-11.6V822.35l10.24-.51.42,2.31a39.85,39.85,0,0,1,13.74-3c5.8,0,10.75,1.79,14.25,5.12,3.5-1.88,11.52-5.12,18.35-5.12,11.6,0,20,7,20,19.62v23.9H915.05Z"/></svg>